<?xml version="1.0" encoding="utf-8"?>
<!-- Generator: Adobe Illustrator 26.0.1, SVG Export Plug-In . SVG Version: 6.00 Build 0)  -->
<svg version="1.1" id="Слой_1" xmlns="http://www.w3.org/2000/svg" xmlns:xlink="http://www.w3.org/1999/xlink" x="0px" y="0px"
	 viewBox="0 0 100 100" style="enable-background:new 0 0 100 100;" xml:space="preserve">
<style type="text/css">
	.st0{fill:#FFFFFF;}
</style>
<g>
	<path class="st0" d="M51.6,48.7c-0.4-0.5-1-0.7-1.6-0.7c-0.6,0-1.2,0.3-1.6,0.7L22,81.4V29.9C22,21.7,27.3,15,33.7,15h32.6
		C72.7,15,78,21.7,78,29.9v51.4L51.6,48.7z"/>
	<path d="M66.3,17c5.4,0,9.7,5.8,9.7,12.9v45.8L68.1,66l-15-18.5C52.3,46.5,51.2,46,50,46s-2.3,0.5-3.1,1.5L31.9,66L24,75.7V29.9
		c0-7.1,4.4-12.9,9.7-12.9H66.3 M66.3,13H33.7C26.1,13,20,20.6,20,29.9V87c10-12.3,20-24.7,30-37c10,12.3,20,24.7,30,37
		c0-19,0-38.1,0-57.1C80,20.6,73.9,13,66.3,13L66.3,13z"/>
</g>
</svg>
