<?xml version="1.0" encoding="utf-8"?>
<!-- Generator: Adobe Illustrator 26.0.1, SVG Export Plug-In . SVG Version: 6.00 Build 0)  -->
<svg version="1.1" id="Слой_1" xmlns="http://www.w3.org/2000/svg" xmlns:xlink="http://www.w3.org/1999/xlink" x="0px" y="0px"
	 viewBox="0 0 100 100" style="enable-background:new 0 0 100 100;" xml:space="preserve">
<g>
	<path d="M68.5,17c8,0,14.5,7.7,14.5,17.1v21.1c0,5.5-2.2,10.6-6,13.9c-0.9,0.7-1.4,1.8-1.4,2.9c-0.1,3,0.3,6,1.3,8.8
		c0,0.1,0.1,0.2,0.1,0.4c-0.7-0.3-1.3-0.6-2-0.9c-3.8-2-8.3-5.8-9.3-6.8c-0.7-0.7-1.7-1.1-2.8-1.1H31.5c-8,0-14.5-7.7-14.5-17.1
		V34.1C17,24.7,23.5,17,31.5,17H68.5 M68.5,13h-37C21.3,13,13,22.5,13,34.1v21.1c0,11.7,8.3,21.1,18.5,21.1c10.5,0,21,0,31.5,0
		c0,0,5.3,4.8,10.2,7.4c2.5,1.3,6.3,2.8,11.8,3.2c-1.2-1.4-3.1-3.9-4.2-7.4c-1-3-1.1-5.7-1.1-7.4c4.5-3.9,7.4-10,7.4-16.9V34.1
		C87,22.5,78.7,13,68.5,13L68.5,13z"/>
</g>
</svg>
